<svg width="33" height="32" viewBox="0 0 33 32" fill="none" xmlns="http://www.w3.org/2000/svg">
<path d="M15.4945 29.0003C7.96121 29.0003 1.82788 22.867 1.82788 15.3337C1.82788 7.80033 7.96121 1.66699 15.4945 1.66699C23.0279 1.66699 29.1612 7.80033 29.1612 15.3337C29.1612 22.867 23.0279 29.0003 15.4945 29.0003ZM15.4945 3.66699C9.05455 3.66699 3.82788 8.90699 3.82788 15.3337C3.82788 21.7603 9.05455 27.0003 15.4945 27.0003C21.9345 27.0003 27.1612 21.7603 27.1612 15.3337C27.1612 8.90699 21.9345 3.66699 15.4945 3.66699Z" fill="#565656"/>
<path d="M29.4944 30.3333C29.2411 30.3333 28.9877 30.2399 28.7877 30.0399L26.1211 27.3733C25.7344 26.9866 25.7344 26.3466 26.1211 25.9599C26.5077 25.5733 27.1477 25.5733 27.5344 25.9599L30.2011 28.6266C30.5877 29.0133 30.5877 29.6533 30.2011 30.0399C30.0011 30.2399 29.7477 30.3333 29.4944 30.3333Z" fill="#565656"/>
</svg>
